# xmcd
#
# Track frame offsets:
# 150
# 3183
# 25221
# 46269
# 64249
# 68157
# 84810
# 86091
# 107091
# 129219
# 129519
# 151957
# 153257
# 173560
# 174373
# 194041
# 213172
# 236095
# 259760
# 278793
# 300754
# 301417
#
# Disc length: 4407 seconds
#
#
# Revision: 0
# Processed by: cddbd v1.4PL0 Copyright (c) Steve Scherf et al.
# Submitted via: FreeRIP 2.52 
#
DISCID=13113516
DTITLE=Janet - The Velvet Rope
DYEAR=1997
DGENRE=R&B
TTITLE0=Interlude - TWISTED ELEGANCE
TTITLE1=The Velvet Rope
TTITLE2=You
TTITLE3=Got 'Til It's Gone
TTITLE4=Interlude - SPEAKER PHONE
TTITLE5=My Need
TTITLE6=Interlude - FASTEN YOUR SEATBELTS
TTITLE7=Go Deep
TTITLE8=Free Xone
TTITLE9=Interlude - MEMORY
TTITLE10=Together Again
TTITLE11=Interlude - ONLINE
TTITLE12=Empty
TTITLE13=Interlude - FULL
TTITLE14=What About
TTITLE15=Every Time
TTITLE16=Tonight's the Night
TTITLE17=I Get Lonely
TTITLE18=Rope Burn
TTITLE19=Anything
TTITLE20=Interlude - sad
TTITLE21=Special
EXTD=
EXTT0=
EXTT1=
EXTT2=
EXTT3=
EXTT4=
EXTT5=
EXTT6=
EXTT7=
EXTT8=
EXTT9=
EXTT10=
EXTT11=
EXTT12=
EXTT13=
EXTT14=
EXTT15=
EXTT16=
EXTT17=
EXTT18=
EXTT19=
EXTT20=
EXTT21=
PLAYORDER=
